<svg width="140" height="50" viewBox="0 0 140 50" fill="none" xmlns="http://www.w3.org/2000/svg">
<rect width="140" height="50" rx="8" fill="white"/>
<path d="M32.3787 14.0381L26.7319 14.2042L26.5243 15.9481C26.3997 16.9031 25.6108 19.1867 24.7389 21.0136L23.1611 24.3353L21.5418 20.806C20.6283 18.8546 19.7979 16.654 19.6734 15.9066L19.4242 14.5779H15.3552H11.2861L13.0715 17.1522C14.068 18.6054 15.4797 20.9721 16.2271 22.4254C17.5558 25.0827 17.5558 25.1242 17.3482 29.8991C17.2651 32.5565 17.016 35.1308 16.8499 35.629C16.5593 36.584 16.6008 36.584 20.5868 36.584C24.5728 36.584 24.6143 36.584 24.3652 35.629C24.1991 35.1308 23.9085 32.7225 23.6594 30.2313L23.2442 25.747L24.8219 22.7575C25.6524 21.1382 27.0226 18.7715 27.8114 17.5259L29.3062 15.2838L38.2332 15.5744C43.1327 15.7405 48.1982 15.9481 49.5269 16.0727C51.8105 16.3218 51.8936 16.3218 52.5164 15.0346L53.2222 13.7475L45.6239 13.8305C41.4303 13.8721 35.4928 13.9966 32.3787 14.0381Z" fill="#155869"/>
<path d="M35.3263 19.3951C34.5374 19.6858 33.3333 19.9349 32.6689 19.9349C31.714 19.9764 31.5479 20.101 31.797 20.6823C31.9631 21.0975 32.2537 23.9624 32.3783 27.035C32.6274 31.4777 32.835 32.931 33.4578 34.0105C34.2883 35.4222 36.9871 37 38.5649 37C40.1427 37 42.1772 35.9205 43.2568 34.5503L44.2948 33.2631L44.793 34.6748C45.3328 36.0865 46.8276 37 48.696 37C49.6925 37 51.9346 34.8409 51.9346 33.8859C51.9346 33.2631 51.8101 33.2631 51.2703 33.6783C50.772 34.1351 50.5229 34.1351 50.0662 33.6368C49.6095 33.1801 49.4434 31.4362 49.4434 25.8724C49.4019 21.9694 49.3603 18.7308 49.3188 18.7308C49.2773 18.7308 48.4884 19.0215 47.5749 19.3536C46.6615 19.6858 45.2913 19.9349 44.5854 19.9764C43.1737 19.9764 42.8831 20.3086 43.6305 21.056C44.2948 21.7203 44.627 29.4847 44.0872 31.4777C43.1322 35.007 39.5199 35.6298 37.9006 32.5573C37.5684 31.976 37.4023 29.3186 37.4023 25.2081C37.4023 21.6373 37.2778 18.7723 37.1117 18.7723C36.9041 18.8138 36.1152 19.063 35.3263 19.3951Z" fill="#155869"/>
<path d="M56.7099 19.3528C56.0456 19.685 54.8415 19.9341 54.0526 19.9756C52.89 19.9756 52.7239 20.1002 53.0146 20.6815C53.4713 21.6365 53.5128 34.4249 53.0561 35.629C52.7239 36.584 52.7655 36.584 56.2947 36.584C59.5749 36.584 59.8655 36.5009 59.5749 35.8366C59.0766 34.6325 58.4953 26.9927 58.786 25.0412C59.1182 22.7575 60.6129 21.2213 62.5644 21.2213C64.3083 21.2213 65.8861 23.0482 66.2598 25.4979C66.5089 27.2833 65.9276 34.5495 65.4293 35.8366C65.1802 36.5009 65.4709 36.584 68.7095 36.584H72.2803L71.8236 35.4214C71.5744 34.7986 71.2838 31.9752 71.1592 29.1102C70.9101 22.8821 70.2458 21.0136 67.7545 19.6435C64.9311 18.0657 61.734 18.6885 59.6995 21.2628L58.5784 22.6745V20.6815C58.5784 18.5639 58.5369 18.5224 56.7099 19.3528Z" fill="#155869"/>
<path d="M78.6743 19.1452C78.4252 19.3943 77.2626 19.685 76.1 19.8511C74.107 20.0587 73.9409 20.1832 74.2315 20.9721C74.6468 22.0932 74.6468 33.4284 74.2731 35.2138L73.9824 36.584H77.3041H80.6673L80.4182 35.4214C80.2521 34.7986 80.003 30.8126 79.8784 26.4944C79.7538 22.2178 79.5462 18.73 79.3801 18.73C79.2141 18.73 78.8819 18.9376 78.6743 19.1452Z" fill="#155869"/>
<path d="M88.1008 19.27C86.0248 19.9343 83.2429 22.7578 82.7031 24.7508C81.4159 29.5257 83.0353 33.8023 86.8552 35.7538C92.1699 38.4942 98.8962 36.0029 100.474 30.8128C102.758 23.1315 95.9067 16.7788 88.1008 19.27ZM94.0383 20.8063C95.367 22.4256 95.9483 24.5016 95.9483 27.8648C95.9483 31.228 95.367 33.3041 94.0383 34.9234C91.9207 37.4146 88.7651 36.0029 87.6441 32.1C87.1043 30.0654 87.1043 25.7888 87.6856 23.5051C88.6406 19.6852 91.9207 18.315 94.0383 20.8063Z" fill="#155869"/>
<path d="M106.328 19.3943C105.539 19.685 104.335 19.9341 103.67 19.9341C102.591 19.9756 102.508 20.0587 102.84 21.0967C103.297 22.5914 103.338 32.5149 102.882 34.7986L102.508 36.584H105.913C108.985 36.584 109.276 36.5009 109.027 35.8366C108.819 35.4629 108.611 32.5565 108.487 29.4424L108.321 23.754L109.566 22.4669C111.933 20.1417 115.047 21.3043 115.711 24.7505C116.002 26.3283 115.67 33.3038 115.213 35.4214L114.964 36.584H118.369C121.441 36.584 121.732 36.5009 121.483 35.8366C121.275 35.4629 121.026 32.598 120.902 29.5254C120.611 23.3803 119.988 21.3873 117.912 19.8511C115.296 17.9411 110.812 18.73 109.193 21.3873L108.404 22.6745V20.6815C108.404 19.6019 108.279 18.7715 108.113 18.7715C107.906 18.813 107.117 19.0622 106.328 19.3943Z" fill="#155869"/>
<path d="M124.804 33.8447C123.393 35.9622 126.424 38.1213 128.001 36.1699C128.915 35.0488 128.956 34.3429 128.084 33.5125C127.13 32.516 125.552 32.6821 124.804 33.8447Z" fill="#155869"/>
<path d="M74.084 15.375V17.7722L74.2014 17.8014C74.5878 17.885 76.0651 17.7889 76.9856 17.6177C78.3417 17.3671 79.3303 16.9787 80.5804 16.1977C81.6069 15.5587 82.819 15.0701 83.9024 14.8571C84.2661 14.7861 84.5274 14.7652 85.0956 14.761C85.5843 14.7569 85.8267 14.7401 85.8267 14.7109C85.8267 14.6441 85.6335 14.4603 85.4517 14.3601C85.2282 14.239 84.535 14.0469 84.0198 13.9675C83.1978 13.838 82.6524 13.8088 80.1447 13.7754C77.4894 13.7378 76.8681 13.7002 75.8681 13.5248C75.1901 13.4037 74.709 13.2575 74.1522 13.0028C74.0878 12.9735 74.084 13.103 74.084 15.375Z" fill="#CED8E3"/>
</svg>
